<mxGraphModel dx="1143" dy="675" grid="1" gridSize="10" guides="1" tooltips="1" connect="1" arrows="1" fold="1" page="1" pageScale="1" pageWidth="850" pageHeight="1100" math="0" shadow="0"><root><mxCell id="0"/><mxCell id="1" parent="0"/><mxCell id="9piri8O3TtonIet_Qdos-43" value="" style="rhombus;whiteSpace=wrap;html=1;" parent="1" vertex="1"><mxGeometry x="385" y="920" width="150" height="115" as="geometry"/></mxCell><mxCell id="9piri8O3TtonIet_Qdos-36" style="edgeStyle=orthogonalEdgeStyle;rounded=0;orthogonalLoop=1;jettySize=auto;html=1;" parent="1" source="9piri8O3TtonIet_Qdos-12" edge="1"><mxGeometry relative="1" as="geometry"><mxPoint x="460" y="920" as="targetPoint"/></mxGeometry></mxCell><mxCell id="9piri8O3TtonIet_Qdos-12" value="" style="rounded=0;whiteSpace=wrap;html=1;fillColor=#d5e8d4;strokeColor=#82b366;" parent="1" vertex="1"><mxGeometry x="200" y="520" width="520" height="320" as="geometry"/></mxCell><mxCell id="9piri8O3TtonIet_Qdos-26" value="" style="rounded=0;whiteSpace=wrap;html=1;fillColor=#f8cecc;strokeColor=#b85450;" parent="1" vertex="1"><mxGeometry x="480" y="625" width="230" height="155" as="geometry"/></mxCell><mxCell id="9piri8O3TtonIet_Qdos-25" value="" style="rounded=0;whiteSpace=wrap;html=1;fillColor=#f8cecc;strokeColor=#b85450;" parent="1" vertex="1"><mxGeometry x="220" y="590" width="230" height="220" as="geometry"/></mxCell><mxCell id="9piri8O3TtonIet_Qdos-28" style="edgeStyle=orthogonalEdgeStyle;rounded=0;orthogonalLoop=1;jettySize=auto;html=1;entryX=0.5;entryY=0;entryDx=0;entryDy=0;" parent="1" source="9piri8O3TtonIet_Qdos-1" target="9piri8O3TtonIet_Qdos-3" edge="1"><mxGeometry relative="1" as="geometry"/></mxCell><mxCell id="9piri8O3TtonIet_Qdos-1" value="Start" style="text;html=1;strokeColor=#6c8ebf;fillColor=#dae8fc;align=center;verticalAlign=middle;whiteSpace=wrap;rounded=0;" parent="1" vertex="1"><mxGeometry x="410" y="30" width="60" height="30" as="geometry"/></mxCell><mxCell id="9piri8O3TtonIet_Qdos-2" value="End" style="text;html=1;strokeColor=#6c8ebf;fillColor=#dae8fc;align=center;verticalAlign=middle;whiteSpace=wrap;rounded=0;" parent="1" vertex="1"><mxGeometry x="625" y="962.5" width="60" height="30" as="geometry"/></mxCell><mxCell id="9piri8O3TtonIet_Qdos-29" style="edgeStyle=orthogonalEdgeStyle;rounded=0;orthogonalLoop=1;jettySize=auto;html=1;entryX=0.5;entryY=0;entryDx=0;entryDy=0;" parent="1" source="9piri8O3TtonIet_Qdos-3" target="9piri8O3TtonIet_Qdos-4" edge="1"><mxGeometry relative="1" as="geometry"/></mxCell><mxCell id="9piri8O3TtonIet_Qdos-3" value="Provide inputs - Company Name, ISO adn Load Segment Group" style="text;html=1;strokeColor=#6c8ebf;fillColor=#dae8fc;align=center;verticalAlign=middle;whiteSpace=wrap;rounded=0;" parent="1" vertex="1"><mxGeometry x="255" y="100" width="370" height="30" as="geometry"/></mxCell><mxCell id="9piri8O3TtonIet_Qdos-30" style="edgeStyle=orthogonalEdgeStyle;rounded=0;orthogonalLoop=1;jettySize=auto;html=1;exitX=0.5;exitY=1;exitDx=0;exitDy=0;entryX=0.5;entryY=0;entryDx=0;entryDy=0;" parent="1" source="9piri8O3TtonIet_Qdos-4" target="9piri8O3TtonIet_Qdos-5" edge="1"><mxGeometry relative="1" as="geometry"/></mxCell><mxCell id="9piri8O3TtonIet_Qdos-4" value="Delete all records in table MPS_Position_Monthly which belong to input Company and ISO" style="text;html=1;strokeColor=#6c8ebf;fillColor=#dae8fc;align=center;verticalAlign=middle;whiteSpace=wrap;rounded=0;" parent="1" vertex="1"><mxGeometry x="255" y="150" width="370" height="30" as="geometry"/></mxCell><mxCell id="9piri8O3TtonIet_Qdos-31" style="edgeStyle=orthogonalEdgeStyle;rounded=0;orthogonalLoop=1;jettySize=auto;html=1;exitX=0.5;exitY=1;exitDx=0;exitDy=0;entryX=0.5;entryY=0;entryDx=0;entryDy=0;" parent="1" source="9piri8O3TtonIet_Qdos-5" target="9piri8O3TtonIet_Qdos-6" edge="1"><mxGeometry relative="1" as="geometry"/></mxCell><mxCell id="9piri8O3TtonIet_Qdos-5" value="Take the first Load Segment of the Load_Segment_Group" style="text;html=1;strokeColor=#6c8ebf;fillColor=#dae8fc;align=center;verticalAlign=middle;whiteSpace=wrap;rounded=0;" parent="1" vertex="1"><mxGeometry x="255" y="200" width="370" height="30" as="geometry"/></mxCell><mxCell id="9piri8O3TtonIet_Qdos-32" style="edgeStyle=orthogonalEdgeStyle;rounded=0;orthogonalLoop=1;jettySize=auto;html=1;exitX=0.5;exitY=1;exitDx=0;exitDy=0;entryX=0.571;entryY=-0.022;entryDx=0;entryDy=0;entryPerimeter=0;" parent="1" source="9piri8O3TtonIet_Qdos-6" target="9piri8O3TtonIet_Qdos-8" edge="1"><mxGeometry relative="1" as="geometry"/></mxCell><mxCell id="9piri8O3TtonIet_Qdos-6" value="Take all the records in table MPS_Position_Hourly" style="text;html=1;strokeColor=#6c8ebf;fillColor=#dae8fc;align=center;verticalAlign=middle;whiteSpace=wrap;rounded=0;" parent="1" vertex="1"><mxGeometry x="255" y="240" width="370" height="30" as="geometry"/></mxCell><mxCell id="9piri8O3TtonIet_Qdos-33" style="edgeStyle=orthogonalEdgeStyle;rounded=0;orthogonalLoop=1;jettySize=auto;html=1;entryX=0.75;entryY=0;entryDx=0;entryDy=0;" parent="1" source="9piri8O3TtonIet_Qdos-7" target="9piri8O3TtonIet_Qdos-13" edge="1"><mxGeometry relative="1" as="geometry"/></mxCell><mxCell id="9piri8O3TtonIet_Qdos-7" value="" style="rounded=0;whiteSpace=wrap;html=1;fillColor=#d5e8d4;strokeColor=#82b366;" parent="1" vertex="1"><mxGeometry x="255" y="300" width="370" height="170" as="geometry"/></mxCell><mxCell id="9piri8O3TtonIet_Qdos-8" value="&lt;b&gt;Filter records to which Load Segment is applicable - List A&lt;/b&gt;" style="text;html=1;strokeColor=none;fillColor=none;align=left;verticalAlign=middle;whiteSpace=wrap;rounded=0;" parent="1" vertex="1"><mxGeometry x="255" y="300" width="345" height="30" as="geometry"/></mxCell><mxCell id="9piri8O3TtonIet_Qdos-9" value="Flag the dates that are NERC Holidays" style="text;html=1;align=center;verticalAlign=middle;whiteSpace=wrap;rounded=0;fillColor=#f5f5f5;fontColor=#333333;strokeColor=#666666;" parent="1" vertex="1"><mxGeometry x="305" y="330" width="270" height="30" as="geometry"/></mxCell><mxCell id="9piri8O3TtonIet_Qdos-10" value="Assign WkDay to each of the dates" style="text;html=1;align=center;verticalAlign=middle;whiteSpace=wrap;rounded=0;fillColor=#f5f5f5;fontColor=#333333;strokeColor=#666666;" parent="1" vertex="1"><mxGeometry x="305" y="370" width="270" height="30" as="geometry"/></mxCell><mxCell id="9piri8O3TtonIet_Qdos-11" value="Use Load Segment definition in Load_Segment_Shape to filter the records to which this Load Segment can be applied" style="text;html=1;align=center;verticalAlign=middle;whiteSpace=wrap;rounded=0;fillColor=#f5f5f5;fontColor=#333333;strokeColor=#666666;" parent="1" vertex="1"><mxGeometry x="295" y="410" width="290" height="50" as="geometry"/></mxCell><mxCell id="9piri8O3TtonIet_Qdos-34" value="" style="edgeStyle=orthogonalEdgeStyle;rounded=0;orthogonalLoop=1;jettySize=auto;html=1;" parent="1" source="9piri8O3TtonIet_Qdos-13" target="9piri8O3TtonIet_Qdos-14" edge="1"><mxGeometry relative="1" as="geometry"/></mxCell><mxCell id="9piri8O3TtonIet_Qdos-13" value="Calculate and Save" style="text;html=1;strokeColor=none;fillColor=none;align=left;verticalAlign=middle;whiteSpace=wrap;rounded=0;fontStyle=1" parent="1" vertex="1"><mxGeometry x="200" y="520" width="310" height="30" as="geometry"/></mxCell><mxCell id="9piri8O3TtonIet_Qdos-14" value="Group the records in List A by Company, Allocated_to_Portfolio_ID and Month to calculate" style="text;html=1;align=center;verticalAlign=middle;whiteSpace=wrap;rounded=0;fillColor=#fff2cc;strokeColor=#d6b656;" parent="1" vertex="1"><mxGeometry x="220" y="550" width="490" height="35" as="geometry"/></mxCell><mxCell id="9piri8O3TtonIet_Qdos-15" value="Intervals = Count(Records)" style="text;html=1;align=center;verticalAlign=middle;whiteSpace=wrap;rounded=0;fillColor=#f5f5f5;fontColor=#333333;strokeColor=#666666;" parent="1" vertex="1"><mxGeometry x="230" y="605" width="210" height="30" as="geometry"/></mxCell><mxCell id="9piri8O3TtonIet_Qdos-17" value="LoadMWh = Sum(LoadMWh)" style="text;html=1;align=center;verticalAlign=middle;whiteSpace=wrap;rounded=0;fillColor=#f5f5f5;fontColor=#333333;strokeColor=#666666;" parent="1" vertex="1"><mxGeometry x="230" y="645" width="210" height="30" as="geometry"/></mxCell><mxCell id="9piri8O3TtonIet_Qdos-18" value="HedgeMWh = Sum(HedgeMWh)" style="text;html=1;align=center;verticalAlign=middle;whiteSpace=wrap;rounded=0;fillColor=#f5f5f5;fontColor=#333333;strokeColor=#666666;" parent="1" vertex="1"><mxGeometry x="230" y="685" width="210" height="30" as="geometry"/></mxCell><mxCell id="9piri8O3TtonIet_Qdos-19" value="NOPMWh = Sum(NOPMWh)" style="text;html=1;align=center;verticalAlign=middle;whiteSpace=wrap;rounded=0;fillColor=#f5f5f5;fontColor=#333333;strokeColor=#666666;" parent="1" vertex="1"><mxGeometry x="230" y="725" width="210" height="30" as="geometry"/></mxCell><mxCell id="9piri8O3TtonIet_Qdos-20" value="Cost = Sum(Cost)" style="text;html=1;align=center;verticalAlign=middle;whiteSpace=wrap;rounded=0;fillColor=#f5f5f5;fontColor=#333333;strokeColor=#666666;" parent="1" vertex="1"><mxGeometry x="230" y="765" width="210" height="30" as="geometry"/></mxCell><mxCell id="9piri8O3TtonIet_Qdos-21" value="LoadMW = LoadMWh / Intervals" style="text;html=1;align=center;verticalAlign=middle;whiteSpace=wrap;rounded=0;fillColor=#f5f5f5;fontColor=#333333;strokeColor=#666666;" parent="1" vertex="1"><mxGeometry x="490" y="645" width="210" height="30" as="geometry"/></mxCell><mxCell id="9piri8O3TtonIet_Qdos-22" value="HedgeMW = HedgeMWh / Intervals" style="text;html=1;align=center;verticalAlign=middle;whiteSpace=wrap;rounded=0;fillColor=#f5f5f5;fontColor=#333333;strokeColor=#666666;" parent="1" vertex="1"><mxGeometry x="490" y="685" width="210" height="30" as="geometry"/></mxCell><mxCell id="9piri8O3TtonIet_Qdos-23" value="NOPMW = NOPMWh / Intervals" style="text;html=1;align=center;verticalAlign=middle;whiteSpace=wrap;rounded=0;fillColor=#f5f5f5;fontColor=#333333;strokeColor=#666666;" parent="1" vertex="1"><mxGeometry x="490" y="725" width="210" height="30" as="geometry"/></mxCell><mxCell id="9piri8O3TtonIet_Qdos-38" style="edgeStyle=orthogonalEdgeStyle;rounded=0;orthogonalLoop=1;jettySize=auto;html=1;entryX=0;entryY=0.5;entryDx=0;entryDy=0;" parent="1" source="9piri8O3TtonIet_Qdos-37" target="9piri8O3TtonIet_Qdos-5" edge="1"><mxGeometry relative="1" as="geometry"/></mxCell><mxCell id="9piri8O3TtonIet_Qdos-37" value="Take next Load Segment of Loaf Segment Group" style="text;html=1;strokeColor=#6c8ebf;fillColor=#dae8fc;align=center;verticalAlign=middle;whiteSpace=wrap;rounded=0;" parent="1" vertex="1"><mxGeometry x="30" y="175" width="120" height="80" as="geometry"/></mxCell><mxCell id="9piri8O3TtonIet_Qdos-45" style="edgeStyle=orthogonalEdgeStyle;rounded=0;orthogonalLoop=1;jettySize=auto;html=1;entryX=0.5;entryY=1;entryDx=0;entryDy=0;" parent="1" target="9piri8O3TtonIet_Qdos-37" edge="1"><mxGeometry relative="1" as="geometry"><mxPoint x="90" y="410" as="targetPoint"/><mxPoint x="390" y="980" as="sourcePoint"/></mxGeometry></mxCell><mxCell id="9piri8O3TtonIet_Qdos-47" style="edgeStyle=orthogonalEdgeStyle;rounded=0;orthogonalLoop=1;jettySize=auto;html=1;entryX=0;entryY=0.5;entryDx=0;entryDy=0;exitX=1;exitY=0.5;exitDx=0;exitDy=0;" parent="1" source="9piri8O3TtonIet_Qdos-43" target="9piri8O3TtonIet_Qdos-2" edge="1"><mxGeometry relative="1" as="geometry"><mxPoint x="540" y="981" as="sourcePoint"/></mxGeometry></mxCell><mxCell id="9piri8O3TtonIet_Qdos-40" value="Are all Load Segment of Load Segment Group done" style="text;html=1;strokeColor=none;fillColor=none;align=center;verticalAlign=middle;whiteSpace=wrap;rounded=0;" parent="1" vertex="1"><mxGeometry x="410" y="950" width="100" height="60" as="geometry"/></mxCell><mxCell id="9piri8O3TtonIet_Qdos-44" style="edgeStyle=orthogonalEdgeStyle;rounded=0;orthogonalLoop=1;jettySize=auto;html=1;exitX=0.5;exitY=1;exitDx=0;exitDy=0;" parent="1" source="9piri8O3TtonIet_Qdos-40" target="9piri8O3TtonIet_Qdos-40" edge="1"><mxGeometry relative="1" as="geometry"/></mxCell><mxCell id="9piri8O3TtonIet_Qdos-46" value="NO" style="text;html=1;strokeColor=none;fillColor=none;align=center;verticalAlign=middle;whiteSpace=wrap;rounded=0;" parent="1" vertex="1"><mxGeometry x="280" y="930" width="60" height="30" as="geometry"/></mxCell><mxCell id="9piri8O3TtonIet_Qdos-48" value="YES" style="text;html=1;strokeColor=none;fillColor=none;align=center;verticalAlign=middle;whiteSpace=wrap;rounded=0;" parent="1" vertex="1"><mxGeometry x="540" y="950" width="60" height="30" as="geometry"/></mxCell><mxCell id="9piri8O3TtonIet_Qdos-50" value="dbo.Load_Segment" style="text;html=1;strokeColor=none;fillColor=none;align=center;verticalAlign=middle;whiteSpace=wrap;rounded=0;fontStyle=2" parent="1" vertex="1"><mxGeometry x="685" y="175" width="135" height="25" as="geometry"/></mxCell><mxCell id="9piri8O3TtonIet_Qdos-51" value="dbo.tbl_nerc_holidays" style="text;html=1;strokeColor=none;fillColor=none;align=center;verticalAlign=middle;whiteSpace=wrap;rounded=0;fontStyle=2" parent="1" vertex="1"><mxGeometry x="685" y="270" width="135" height="25" as="geometry"/></mxCell><mxCell id="9piri8O3TtonIet_Qdos-52" value="blu.tbl_weekday" style="text;html=1;strokeColor=none;fillColor=none;align=center;verticalAlign=middle;whiteSpace=wrap;rounded=0;fontStyle=2" parent="1" vertex="1"><mxGeometry x="685" y="360" width="135" height="25" as="geometry"/></mxCell><mxCell id="9piri8O3TtonIet_Qdos-53" value="dbo.Load_Segment_Shape" style="text;html=1;strokeColor=none;fillColor=none;align=center;verticalAlign=middle;whiteSpace=wrap;rounded=0;fontStyle=2" parent="1" vertex="1"><mxGeometry x="670" y="430" width="165" height="25" as="geometry"/></mxCell><mxCell id="9piri8O3TtonIet_Qdos-54" value="&lt;div&gt;Note: In MPS2 X we position Archiving function -&lt;/div&gt;&lt;div&gt;at that point we earlier version&lt;/div&gt;&lt;div&gt;positions OR move old positions calculate to different table.&lt;/div&gt;" style="text;html=1;strokeColor=none;fillColor=none;align=center;verticalAlign=middle;whiteSpace=wrap;rounded=0;fontStyle=2" parent="1" vertex="1"><mxGeometry x="657.5" y="20" width="190" height="90" as="geometry"/></mxCell></root></mxGraphModel>